<?xml version="1.0" encoding="utf-8"?><svg xmlns="http://www.w3.org/2000/svg" xmlns:xlink="http://www.w3.org/1999/xlink" width="417px" height="417px" viewBox="0 0 100 100" preserveAspectRatio="xMidYMid" style="margin-right:-2px;display:block;background-repeat-y:initial;background-repeat-x:initial;animation-play-state:paused" ><g transform="rotate(0 50 50)" style="transform:matrix(1, 0, 0, 1, 0, 0);animation-play-state:paused" ><rect x="49" y="32.5" rx="0.99" ry="0.99" width="2" height="9" fill="#ffffff" opacity="0.0588234" style="opacity:0.0588234;animation-play-state:paused" ></rect></g>
<g transform="rotate(21.176470588235293 50 50)" style="transform:matrix(0.932472, 0.361242, -0.361242, 0.932472, 21.4385, -14.6857);animation-play-state:paused" ><rect x="49" y="32.5" rx="0.99" ry="0.99" width="2" height="9" fill="#ffffff" opacity="0.117648" style="opacity:0.117648;animation-play-state:paused" ></rect></g>
<g transform="rotate(42.35294117647059 50 50)" style="transform:matrix(0.739009, 0.673696, -0.673696, 0.739009, 46.7343, -20.6352);animation-play-state:paused" ><rect x="49" y="32.5" rx="0.99" ry="0.99" width="2" height="9" fill="#ffffff" opacity="0.176471" style="opacity:0.176471;animation-play-state:paused" ></rect></g>
<g transform="rotate(63.529411764705884 50 50)" style="transform:matrix(0.445738, 0.895163, -0.895163, 0.445738, 72.4712, -17.0451);animation-play-state:paused" ><rect x="49" y="32.5" rx="0.99" ry="0.99" width="2" height="9" fill="#ffffff" opacity="0.235295" style="opacity:0.235295;animation-play-state:paused" ></rect></g>
<g transform="rotate(84.70588235294117 50 50)" style="transform:matrix(0.0922684, 0.995734, -0.995734, 0.0922684, 95.1733, -4.40013);animation-play-state:paused" ><rect x="49" y="32.5" rx="0.99" ry="0.99" width="2" height="9" fill="#ffffff" opacity="0.294118" style="opacity:0.294118;animation-play-state:paused" ></rect></g>
<g transform="rotate(105.88235294117646 50 50)" style="transform:matrix(-0.273663, 0.961826, -0.961826, -0.273663, 111.774, 15.5919);animation-play-state:paused" ><rect x="49" y="32.5" rx="0.99" ry="0.99" width="2" height="9" fill="#ffffff" opacity="0.352941" style="opacity:0.352941;animation-play-state:paused" ></rect></g>
<g transform="rotate(127.05882352941177 50 50)" style="transform:matrix(-0.602635, 0.798017, -0.798017, -0.602635, 120.033, 40.2309);animation-play-state:paused" ><rect x="49" y="32.5" rx="0.99" ry="0.99" width="2" height="9" fill="#ffffff" opacity="0.411765" style="opacity:0.411765;animation-play-state:paused" ></rect></g>
<g transform="rotate(148.23529411764707 50 50)" style="transform:matrix(-0.850217, 0.526432, -0.526432, -0.850217, 118.832, 66.1892);animation-play-state:paused" ><rect x="49" y="32.5" rx="0.99" ry="0.99" width="2" height="9" fill="#ffffff" opacity="0.470588" style="opacity:0.470588;animation-play-state:paused" ></rect></g>
<g transform="rotate(169.41176470588235 50 50)" style="transform:matrix(-0.982973, 0.18375, -0.18375, -0.982973, 108.336, 89.9612);animation-play-state:paused" ><rect x="49" y="32.5" rx="0.99" ry="0.99" width="2" height="9" fill="#ffffff" opacity="0.529412" style="opacity:0.529412;animation-play-state:paused" ></rect></g>
<g transform="rotate(190.58823529411765 50 50)" style="transform:matrix(-0.982973, -0.18375, 0.18375, -0.982973, 89.9612, 108.336);animation-play-state:paused" ><rect x="49" y="32.5" rx="0.99" ry="0.99" width="2" height="9" fill="#ffffff" opacity="0.588236" style="opacity:0.588236;animation-play-state:paused" ></rect></g>
<g transform="rotate(211.76470588235293 50 50)" style="transform:matrix(-0.850217, -0.526432, 0.526432, -0.850217, 66.1892, 118.832);animation-play-state:paused" ><rect x="49" y="32.5" rx="0.99" ry="0.99" width="2" height="9" fill="#ffffff" opacity="0.64706" style="opacity:0.64706;animation-play-state:paused" ></rect></g>
<g transform="rotate(232.94117647058823 50 50)" style="transform:matrix(-0.602635, -0.798017, 0.798017, -0.602635, 40.2309, 120.033);animation-play-state:paused" ><rect x="49" y="32.5" rx="0.99" ry="0.99" width="2" height="9" fill="#ffffff" opacity="0.705883" style="opacity:0.705883;animation-play-state:paused" ></rect></g>
<g transform="rotate(254.11764705882354 50 50)" style="transform:matrix(-0.273663, -0.961826, 0.961826, -0.273663, 15.5919, 111.774);animation-play-state:paused" ><rect x="49" y="32.5" rx="0.99" ry="0.99" width="2" height="9" fill="#ffffff" opacity="0.764706" style="opacity:0.764706;animation-play-state:paused" ></rect></g>
<g transform="rotate(275.29411764705884 50 50)" style="transform:matrix(0.0922685, -0.995734, 0.995734, 0.0922685, -4.40014, 95.1733);animation-play-state:paused" ><rect x="49" y="32.5" rx="0.99" ry="0.99" width="2" height="9" fill="#ffffff" opacity="0.82353" style="opacity:0.82353;animation-play-state:paused" ></rect></g>
<g transform="rotate(296.47058823529414 50 50)" style="transform:matrix(0.445738, -0.895163, 0.895163, 0.445738, -17.0451, 72.4713);animation-play-state:paused" ><rect x="49" y="32.5" rx="0.99" ry="0.99" width="2" height="9" fill="#ffffff" opacity="0.882353" style="opacity:0.882353;animation-play-state:paused" ></rect></g>
<g transform="rotate(317.6470588235294 50 50)" style="transform:matrix(0.739009, -0.673696, 0.673696, 0.739009, -20.6352, 46.7343);animation-play-state:paused" ><rect x="49" y="32.5" rx="0.99" ry="0.99" width="2" height="9" fill="#ffffff" opacity="0.941177" style="opacity:0.941177;animation-play-state:paused" ></rect></g>
<g transform="rotate(338.8235294117647 50 50)" style="transform:matrix(0.932472, -0.361242, 0.361242, 0.932472, -14.6857, 21.4385);animation-play-state:paused" ><rect x="49" y="32.5" rx="0.99" ry="0.99" width="2" height="9" fill="#ffffff" opacity="1" style="animation-play-state:paused" ></rect></g><!-- generated by https://loading.io/ --></svg>